HIERARCHY
ROOT Hips
{
    OFFSET 0.000000 0.000000 0.000000
    CHANNELS 6 Xposition Yposition Zposition Zrotation Xrotation Yrotation
    JOINT Spine
    {
        OFFSET -0.000000 7.795402 0.000000
        CHANNELS 3 Zrotation Xrotation Yrotation
        JOINT Spine1
        {
            OFFSET -0.000000 20.648252 0.000000
            CHANNELS 3 Zrotation Xrotation Yrotation
            JOINT Neck
            {
                OFFSET -0.000000 20.563454 1.869405
                CHANNELS 3 Zrotation Xrotation Yrotation
                JOINT Head
                {
                    OFFSET -0.000000 13.309221 -1.901317
                    CHANNELS 3 Zrotation Xrotation Yrotation
                    End Site
                    {
                        OFFSET -0.000000 23.766466 0.000000
                    }
                }
            }
            JOINT LeftShoulder
            {
                OFFSET 3.798743 19.114376 -0.113875
                CHANNELS 3 Zrotation Xrotation Yrotation
                JOINT LeftArm
                {
                    OFFSET 9.772051 0.000000 0.000000
                    CHANNELS 3 Zrotation Xrotation Yrotation
                    JOINT LeftForeArm
                    {
                        OFFSET 36.651028 0.000000 0.000000
                        CHANNELS 3 Zrotation Xrotation Yrotation
                        JOINT LeftHand
                        {
                            OFFSET 25.694054 0.000000 0.000000
                            CHANNELS 3 Zrotation Xrotation Yrotation
                            End Site
                            {
                                OFFSET 14.259881 0.000000 0.000000
                            }
                        }
                    }
                }
            }
            JOINT RightShoulder
            {
                OFFSET -3.780769 19.114376 -0.113875
                CHANNELS 3 Zrotation Xrotation Yrotation
                JOINT RightArm
                {
                    OFFSET -9.772051 0.000000 0.000000
                    CHANNELS 3 Zrotation Xrotation Yrotation
                    JOINT RightForeArm
                    {
                        OFFSET -36.651028 0.000000 0.000000
                        CHANNELS 3 Zrotation Xrotation Yrotation
                        JOINT RightHand
                        {
                            OFFSET -25.694054 0.000000 0.000000
                            CHANNELS 3 Zrotation Xrotation Yrotation
                            End Site
                            {
                                OFFSET -14.259881 0.000000 0.000000
                            }
                        }
                    }
                }
            }
        }
    }
    JOINT LeftUpLeg
    {
        OFFSET 9.506587 0.000000 0.000000
        CHANNELS 3 Zrotation Xrotation Yrotation
        JOINT LeftLeg
        {
            OFFSET -0.000000 -42.556026 0.000000
            CHANNELS 3 Zrotation Xrotation Yrotation
            JOINT LeftFoot
            {
                OFFSET -0.000000 -42.739758 0.000000
                CHANNELS 3 Zrotation Xrotation Yrotation
                JOINT LeftToeBase
                {
                    OFFSET -0.000000 -6.179281 14.259881
                    CHANNELS 3 Zrotation Xrotation Yrotation
                    End Site
                    {
                        OFFSET -0.000000 0.000000 3.802635
                    }
                }
            }
        }
    }
    JOINT RightUpLeg
    {
        OFFSET -9.506587 0.000000 0.000000
        CHANNELS 3 Zrotation Xrotation Yrotation
        JOINT RightLeg
        {
            OFFSET -0.000000 -42.556026 0.000000
            CHANNELS 3 Zrotation Xrotation Yrotation
            JOINT RightFoot
            {
                OFFSET -0.000000 -42.739758 0.000000
                CHANNELS 3 Zrotation Xrotation Yrotation
                JOINT RightToeBase
                {
                    OFFSET -0.000000 -6.179281 14.259881
                    CHANNELS 3 Zrotation Xrotation Yrotation
                    End Site
                    {
                        OFFSET -0.000000 0.000000 3.802635
                    }
                }
            }
        }
    }
}
MOTION
Frames:    7
Frame Time:    0.008333
-12.827783    92.829094    22.901062    1.710349    0.582247    89.314049    -0.610263    -1.163912    0.496995    -2.078721    -2.756031    0.453225    11.419526    13.058359    1.924869    -3.338989    -2.081201    1.122706    18.407713    -0.386992    3.093281    -16.049335    0.598917    -7.377930    -0.190903    -2.125989    -1.408521    11.589502    -2.754750    -6.171962    -11.525613    -0.436891    11.246156    14.811539    0.556368    -7.318313    0.115047    0.639503    -0.079202    5.135450    0.807768    3.748680    4.948109    4.073151    -2.465313    -2.603492    1.990806    -0.271807    -3.360074    -5.028755    23.421991    0.000000    0.000000    0.000000    -7.560931    0.791272    1.186616    3.744506    6.725178    -1.840613    4.784330    -6.852787    -15.768196    0.000000    0.000000    0.000000    
-12.825158    92.829170    22.889128    1.704845    0.595930    89.307106    -0.620728    -1.113277    0.489423    -2.097224    -2.906859    0.442333    11.499088    13.279983    1.890006    -3.393183    -2.150342    1.097135    18.383520    -0.304028    2.999830    -16.023413    0.588735    -7.352701    -0.186174    -2.107660    -1.405199    11.619622    -2.737993    -6.171776    -11.428085    -0.374358    11.334417    14.779781    0.566461    -7.350394    0.121259    0.523854    -0.011228    5.185176    0.688480    3.633430    4.933532    4.071556    -2.484023    -2.617253    1.993314    -0.255400    -3.370814    -5.032657    23.426846    0.000000    0.000000    0.000000    -7.580567    0.783926    1.214863    3.731454    6.777387    -1.895934    4.838935    -6.905389    -15.689121    0.000000    0.000000    0.000000    
-12.823020    92.828270    22.882879    1.702393    0.602935    89.298904    -0.628492    -1.107078    0.492728    -2.102738    -2.942012    0.444964    11.504735    13.255302    1.880149    -3.359909    -2.011780    1.093353    18.291653    -0.146248    2.888062    -15.912679    0.478179    -7.292984    -0.205137    -2.142146    -1.450886    11.634974    -2.770435    -6.141061    -11.379539    -0.354628    11.353719    14.755504    0.562696    -7.353496    0.137912    0.477864    0.001206    5.076892    0.636079    3.566556    4.911967    4.066100    -2.468834    -2.599369    2.001151    -0.236732    -3.355729    -5.018476    23.407938    0.000000    0.000000    0.000000    -7.591381    0.775334    1.242281    3.734270    6.790641    -1.898834    4.839337    -6.915951    -15.703588    0.000000    0.000000    0.000000    
-12.818524    92.828087    22.876488    1.711833    0.603966    89.292076    -0.618371    -1.078179    0.485870    -2.111829    -3.001162    0.436467    11.217460    13.308811    1.871160    -2.912626    -2.017621    1.169269    18.358829    -0.240956    2.928585    -16.018332    0.580996    -7.335476    -0.142465    -2.120699    -1.433643    11.561594    -2.740557    -6.104536    -11.350665    -0.310432    11.392554    14.745926    0.558169    -7.349175    0.137011    0.503494    0.006886    5.119904    0.663350    3.571949    4.906864    4.074275    -2.453419    -2.593923    2.001117    -0.301713    -3.330541    -5.009351    23.442480    0.000000    0.000000    0.000000    -7.595892    0.783719    1.246898    3.731604    6.792980    -1.891949    4.836780    -6.909892    -15.701646    0.000000    0.000000    0.000000    
-12.812016    92.826889    22.871363    1.716566    0.601451    89.287354    -0.627747    -1.071092    0.490474    -2.083028    -3.031732    0.441308    11.571970    13.450352    1.840896    -3.486522    -2.097031    1.048935    18.239565    -0.103615    2.803855    -15.908860    0.457253    -7.260326    -0.168052    -2.165151    -1.476421    11.603497    -2.788203    -6.110273    -11.338608    -0.304661    11.406542    14.739841    0.560681    -7.355277    0.127782    0.523310    0.003765    5.269822    0.686393    3.540893    4.911578    4.086932    -2.458263    -2.612311    2.009167    -0.265219    -3.325305    -5.034694    23.426802    0.000000    0.000000    0.000000    -7.594303    0.789771    1.255152    3.730515    6.798578    -1.906689    4.830683    -6.923572    -15.703190    0.000000    0.000000    0.000000    
-12.808096    92.826065    22.866169    1.717904    0.600457    89.282707    -0.634805    -1.065445    0.485686    -2.058548    -3.056549    0.436743    11.415998    13.302185    1.853090    -3.234007    -1.840006    1.097675    18.209545    -0.092617    2.792684    -15.908925    0.443107    -7.267316    -0.153922    -2.210418    -1.488200    11.372757    -2.830316    -6.205113    -11.327971    -0.280430    11.441756    14.735641    0.569643    -7.359064    0.097984    0.524233    -0.007622    5.398531    0.692105    3.556011    4.915937    4.091311    -2.469284    -2.628265    2.003596    -0.264596    -3.294278    -5.027593    23.447525    0.000000    0.000000    0.000000    -7.592968    0.788450    1.248564    3.720672    6.804338    -1.917805    4.848606    -6.921238    -15.681828    0.000000    0.000000    0.000000    
-12.799767    92.825798    22.859900    1.723147    0.598800    89.280457    -0.641629    -1.078548    0.486940    -2.031228    -3.035246    0.439178    11.423457    13.294339    1.847243    -3.258357    -1.793398    1.087990    18.181086    -0.093885    2.782614    -15.905954    0.347606    -7.292808    -0.122661    -2.108577    -1.427153    11.054664    -2.733093    -6.436305    -11.337056    -0.285207    11.432617    14.751136    0.585562    -7.343723    0.069772    0.523489    -0.005063    5.440398    0.692272    3.550241    4.908003    4.101595    -2.467380    -2.608688    1.993028    -0.292912    -3.312648    -5.025224    23.457884    0.000000    0.000000    0.000000    -7.596206    0.793678    1.261416    3.724300    6.811417    -1.914338    4.845106    -6.940241    -15.699140    0.000000    0.000000    0.000000    
